# xmcd
#
# Track frame offsets: 
#        150
#        21305
#        40547
#        61760
#        79657
#        97510
#        112385
#        133375
#        150310
#        174334
#
# Disc length: 2586 seconds
#
# Revision: 1
# Processed by: cddbd v1.5.2PL0 Copyright (c) Steve Scherf et al.
# Submitted via: ExactAudioCopy v1.0b2
#
DISCID=710a180a
DTITLE=김광진 - it's me
DYEAR=2000
DGENRE=K-Ballad
TTITLE0=수호천사 (작사:김광진 작곡:김광진 편곡:박용준)
TTITLE1=Hero (작사:김광진 작곡:김광진 편곡:박용준)
TTITLE2=편지 (작사:허승경 작곡:김광진 편곡:박용준)
TTITLE3=Hello, I`M Mr. Smile (작사:김광진 작곡:김광진 편곡:박용준)
TTITLE4=레테의 연가 (작사:허승경 작곡:김광진 편곡:박용준)
TTITLE5=토니 (작사:김광진 작곡:김광진 편곡:박용준)
TTITLE6=정글 속 세상 (작사:김광진 작곡:김광진 편곡:박용준)
TTITLE7=Oh, No! (작사:김광진 작곡:김광진 편곡:박용준)
TTITLE8=비가 (작사:허승경 작곡:김광진 편곡:박용준)
TTITLE9=눈이 와요 (작사:김광진 작곡:김광진 편곡:박용준)
EXTD=
EXTT0=
EXTT1=
EXTT2=
EXTT3=
EXTT4=
EXTT5=
EXTT6=
EXTT7=
EXTT8=
EXTT9=
PLAYORDER=
